<svg width="32" height="32" viewBox="0 0 32 32" fill="none" xmlns="http://www.w3.org/2000/svg">
<rect width="32" height="32" rx="5" fill="#EEE7D3"/>
<path d="M5 14.5C3.8 2.50001 10.8333 2.16667 14.5 3.5C25.5 8.5 22 11 21 10.5C20 10 22 11.5 14.5 7C8.1 3.8 7 10.5 8 14.5C9.18216 14.5 10.2449 14.5385 11.199 14.6082C10.843 8.70298 17.9679 11.9589 23 15.5C24.4211 16.5 27 19 27.5 20.5C27.9472 21.8416 27.5 24 21 27.5C16.4707 28.8588 14.4032 27.7558 12.1957 19.3596C10.3043 18.7772 9.06769 18.2448 8.60345 18L10.5 29L7 30C6.83333 29.8333 6.2 26.5 5 14.5Z" fill="#A49E8E"/>
<path d="M8 14.5C7 10.5 8.1 3.8 14.5 7C22 11.5 20 10 21 10.5C22 11 25.5 8.5 14.5 3.5C10.8333 2.16667 3.8 2.50001 5 14.5C6.2 26.5 6.83333 29.8333 7 30L10.5 29L8.60345 18M8 14.5C17.2 14.5 19.1667 16.8333 19 18C18.8333 19 17.7 20.8 14.5 20C11.3 19.2 9.23563 18.3333 8.60345 18M8 14.5L8.60345 18M23 15.5C17.5 11.6296 9.5 8.10001 11.5 16.5C14 27.5 16 29 21 27.5C27.5 24 27.9472 21.8416 27.5 20.5C27 19 24.4211 16.5 23 15.5Z" stroke="#938C7B" stroke-width="0.5"/>
</svg>
