<svg xmlns="http://www.w3.org/2000/svg" version="1.1" xmlns:xlink="http://www.w3.org/1999/xlink" width="512" height="512" x="0" y="0" viewBox="0 0 32 32" style="enable-background:new 0 0 512 512" xml:space="preserve" class=""><g><path d="M32 9c0 3.96-3.27 5-5 5-.55 0-1-.45-1-1s.45-1 1-1c.5-.01 3-.18 3-3s-2.5-2.99-3.01-3c-5.84 0-9.2 15.26-10 21.13-.07.5-.49.87-.99.87s-.92-.37-.99-.87C14.21 21.26 10.84 6 5 6c-.5.01-3 .18-3 3s2.5 2.99 3.01 3c.55.01.99.46.99 1.01S5.55 14 5 14c-1.73 0-5-1.04-5-5s3.27-5 5-5c6.18 0 9.5 10.55 11 17.39C17.5 14.55 20.82 4 27 4c1.73 0 5 1.04 5 5z" fill="#000000" opacity="1" data-original="#000000" class=""></path></g></svg>
