<svg xmlns="http://www.w3.org/2000/svg" version="1.1" xmlns:xlink="http://www.w3.org/1999/xlink" width="512" height="512" x="0" y="0" viewBox="0 0 20 20" style="enable-background:new 0 0 512 512" xml:space="preserve" class=""><g><path d="M1 13h5c.4 0 .8-.3.9-.7.1-.3.1-.6-.1-.9C6.3 10.7 6 9.9 6 9c0-2.2 1.8-4 4-4s4 1.8 4 4c0 .9-.3 1.7-.8 2.4-.2.3-.3.7-.1 1.1s.6.6.9.6h5c.6 0 1-.4 1-1s-.4-1-1-1h-3.3c.2-.6.3-1.3.3-2 0-3.3-2.7-6-6-6S4 5.7 4 9c0 .7.1 1.4.3 2H1c-.6 0-1 .4-1 1s.4 1 1 1zM19 15H1c-.6 0-1 .4-1 1s.4 1 1 1h18c.6 0 1-.4 1-1s-.5-1-1-1z" fill="#000000" opacity="1" data-original="#000000" class=""></path></g></svg>