<svg xmlns="http://www.w3.org/2000/svg" version="1.1" xmlns:xlink="http://www.w3.org/1999/xlink" width="512" height="512" x="0" y="0" viewBox="0 0 512.001 512" style="enable-background:new 0 0 512 512" xml:space="preserve" class=""><g><path d="M391 360H241l75 56.25ZM21.766 302.824ZM11.043 221.574c-7.773 14.301-5.227 32.031 6.281 43.54l1.13 1.128c2 2 4.737 3.074 7.562 2.965a10.156 10.156 0 0 0 7.316-3.539c.379-.441.738-.871 1.082-1.277C42.617 254.68 54.996 240 76 240c21.21 0 32.418 11.207 40.605 19.395C123.961 266.75 127.562 270 136 270c8.438 0 12.043-3.25 19.395-10.605C163.582 251.207 174.789 240 196 240c21.21 0 32.418 11.207 40.605 19.395C243.961 266.75 247.563 270 256 270c8.438 0 12.043-3.25 19.395-10.605C283.582 251.207 294.789 240 316 240c21.21 0 32.418 11.207 40.605 19.395C363.961 266.75 367.562 270 376 270c8.438 0 12.043-3.25 19.395-10.605C403.582 251.207 414.789 240 436 240c21.008 0 33.383 14.68 41.586 24.39.59.696 1.238 1.465 1.914 2.258a7.443 7.443 0 0 0 5.938 2.586 7.44 7.44 0 0 0 5.714-3.054l1.711-2.34c11.258-15.434 12.13-36.149 2.211-52.477-.277-.457-.554-.91-.836-1.363H17.762a244.606 244.606 0 0 0-6.719 11.574ZM440.988 360l-115.992 86.996A14.929 14.929 0 0 1 316 450h90c45.637 0 90.82-29.371 105.172-70.148 3.406-9.672-4.125-19.852-14.379-19.852ZM472.656 330c4.778-8.195 7.692-17.54 8.102-27.594-11.863-2.488-20.606-12.14-26.11-18.664C447.468 275.215 442.723 270 436 270c-8.438 0-12.04 3.254-19.395 10.605C408.418 288.793 397.211 300 376 300c-21.21 0-32.418-11.207-40.605-19.395C328.043 273.254 324.438 270 316 270c-8.438 0-12.04 3.254-19.395 10.605C288.418 288.793 277.211 300 256 300c-21.21 0-32.418-11.207-40.605-19.395C208.043 273.254 204.437 270 196 270c-8.438 0-12.04 3.254-19.395 10.605C168.418 288.793 157.211 300 136 300c-21.21 0-32.418-11.207-40.605-19.395C88.043 273.254 84.438 270 76 270c-6.723 0-11.469 5.215-18.648 13.742-5.52 6.54-14.157 16.586-26.07 19.035.464 9.914 3.343 19.13 8.062 27.223ZM191.012 360H15.207C4.957 360-2.574 370.18.828 379.852 15.184 420.629 60.363 450 106 450h210c-3.164 0-6.328-.996-8.992-3.004ZM496.855 180c9.024 0 16.43-7.984 14.957-16.887C496.548 70.727 412.649 0 316 0H196C99.352 0 15.453 70.727.187 163.113-1.284 172.016 6.122 180 15.146 180ZM346 90c8.285 0 15 6.715 15 15s-6.715 15-15 15-15-6.715-15-15 6.715-15 15-15Zm-60-30c8.285 0 15 6.715 15 15s-6.715 15-15 15-15-6.715-15-15 6.715-15 15-15Zm-30 60c8.285 0 15 6.715 15 15s-6.715 15-15 15-15-6.715-15-15 6.715-15 15-15Zm-60-60c8.285 0 15 6.715 15 15s-6.715 15-15 15-15-6.715-15-15 6.715-15 15-15Zm-60 30c8.285 0 15 6.715 15 15s-6.715 15-15 15-15-6.715-15-15 6.715-15 15-15Zm0 0" style="stroke:none;fill-rule:nonzero;fill-opacity:1;" fill="#000000" data-original="#000000"></path></g></svg>
