<svg xmlns="http://www.w3.org/2000/svg" version="1.1" xmlns:xlink="http://www.w3.org/1999/xlink" width="512" height="512" x="0" y="0" viewBox="0 0 512.003 512.003" style="enable-background:new 0 0 512 512" xml:space="preserve" class=""><g><path d="M423.045 40.537C293.988-26.161 130.899-8.852 26.431 82.621c-6.808 5.956-7.492 16.315-1.527 23.123 5.956 6.799 16.297 7.51 23.123 1.536 94.571-82.818 242.596-98.281 359.98-37.628 31.423 16.253 82.188 51.883 69.113 107.912-4.971 21.366-17.957 39.492-36.545 51.031-18.49 11.495-40.353 15.09-61.532 10.11-21.153-4.962-38.924-17.647-50.055-35.719-10.971-17.797-14.309-38.808-9.4-59.162 4.767-19.786 22.103-38.826 46.362-50.934 8.095-4.039 11.38-13.874 7.341-21.978-4.039-8.087-13.874-11.38-21.978-7.35-15.756 7.865-53.49 30.669-63.592 72.593-6.959 28.902-2.219 58.736 13.35 84.017 15.738 25.556 40.761 43.469 70.471 50.437a114.87 114.87 0 0 0 26.275 3.062c21.046 0 41.72-5.859 60.041-17.238 26.035-16.164 44.205-41.533 51.173-71.43 13.227-56.703-18.116-109.359-85.986-144.466zM463.975 404.743c-94.58 82.801-242.605 98.272-359.98 37.619-31.423-16.244-82.188-51.866-69.113-107.903 4.989-21.366 17.966-39.492 36.554-51.04 18.508-11.477 40.371-15.072 61.532-10.11 21.144 4.962 38.924 17.656 50.055 35.728 10.954 17.798 14.291 38.799 9.391 59.153-4.758 19.777-22.094 38.826-46.362 50.934-8.095 4.048-11.38 13.892-7.341 21.987 4.048 8.095 13.901 11.389 21.987 7.35 15.756-7.873 53.499-30.695 63.592-72.61 6.959-28.884 2.21-58.719-13.35-83.999-15.738-25.556-40.77-43.477-70.48-50.454-29.71-6.959-60.369-1.935-86.307 14.176C28.118 271.736 9.947 297.105 2.97 327.01c-13.226 56.703 18.117 109.359 85.987 144.448 52.496 27.136 110.593 40.362 168.113 40.362 83.901 0 166.533-28.174 228.492-82.428 6.808-5.956 7.492-16.306 1.527-23.123-5.947-6.799-16.297-7.5-23.114-1.526z" fill="#000000" opacity="1" data-original="#000000" class=""></path></g></svg>