<svg xmlns="http://www.w3.org/2000/svg" version="1.1" xmlns:xlink="http://www.w3.org/1999/xlink" width="512" height="512" x="0" y="0" viewBox="0 0 96 90" style="enable-background:new 0 0 512 512" xml:space="preserve" fill-rule="evenodd" class=""><g><path d="M41.691 76.368c-9.774 5.947-18.982 9.455-26.062 9.862-4.304.248-7.773-.639-9.911-3.029-3.071-3.433-2.826-9.154-.31-15.998a1.5 1.5 0 0 0-2.816-1.035c-2.995 8.15-2.767 14.945.89 19.033 2.674 2.988 6.937 4.334 12.319 4.024 7.449-.429 17.167-4.037 27.45-10.294a1.501 1.501 0 0 0-1.56-2.563zM7.399 62.555c4.752-9.786 13.535-21.063 25.124-31.431 13.648-12.21 28.113-20.418 39.27-23.045 6.891-1.622 12.447-1.185 15.458 2.181 2.152 2.406 2.642 5.982 1.897 10.269a1.5 1.5 0 0 0 2.956.514c.931-5.357.072-9.778-2.617-12.783-3.596-4.019-10.153-5.038-18.381-3.101-11.52 2.712-26.492 11.123-40.583 23.73C18.6 39.555 9.589 51.177 4.7 61.245a1.5 1.5 0 0 0 2.699 1.31zM79.23 41.512c-2.488 3.542-5.384 7.158-8.64 10.757a1.501 1.501 0 0 0 2.225 2.013c3.343-3.696 6.315-7.409 8.87-11.046a1.5 1.5 0 0 0-2.455-1.724z" fill="#000000" opacity="1" data-original="#000000" class=""></path><path d="M30.586 71.519c-2.92.914-5.56 1.335-7.776 1.171-1.937-.144-3.522-.731-4.58-1.914-1.974-2.207-1.776-5.86-.218-10.232 2.619-7.352 9.276-16.513 18.569-24.827a93.878 93.878 0 0 1 5.744-4.747 1.5 1.5 0 1 0-1.817-2.387 96.616 96.616 0 0 0-5.927 4.898c-9.737 8.71-16.651 18.353-19.395 26.056-2.019 5.666-1.751 10.38.808 13.239 1.246 1.393 2.954 2.299 5.053 2.703 2.818.544 6.399.167 10.436-1.098a1.5 1.5 0 0 0-.897-2.862zm40.289-33.936c-2.359 4.15-5.674 8.591-9.76 12.969a1.5 1.5 0 0 0 2.193 2.047c4.263-4.567 7.714-9.204 10.175-13.533a1.5 1.5 0 0 0-2.608-1.483zm-24.122-9.769c6.913-4.597 13.565-7.5 18.812-8.223 3.113-.429 5.685-.114 7.368 1.271a1.5 1.5 0 1 0 1.906-2.316c-2.222-1.829-5.572-2.493-9.683-1.927-5.589.77-12.701 3.801-20.064 8.697a1.501 1.501 0 0 0 1.661 2.498z" fill="#000000" opacity="1" data-original="#000000" class=""></path><path d="M33.672 48.112c1.846-2.498 4.246-5.128 7.063-7.649 5.001-4.474 10.19-7.61 14.121-8.748 1.158-.335 2.189-.494 3.048-.422.579.048 1.062.188 1.374.538.313.349.398.845.383 1.425-.024.862-.297 1.869-.758 2.983-1.567 3.781-5.259 8.589-10.26 13.063-3.176 2.841-6.432 5.14-9.399 6.739a1.5 1.5 0 1 0 1.422 2.641c3.149-1.696 6.607-4.129 9.977-7.144 6.347-5.678 10.658-11.925 11.73-16.232.587-2.359.238-4.25-.859-5.475-1.096-1.226-2.937-1.783-5.346-1.461-4.399.587-11.086 4.179-17.433 9.858-2.983 2.668-5.521 5.456-7.475 8.101a1.5 1.5 0 0 0 2.412 1.783zM64.363 50.075c-10.141 0-18.374 8.234-18.374 18.375s8.233 18.374 18.374 18.374 18.375-8.233 18.375-18.374-8.234-18.375-18.375-18.375zm0 3c8.486 0 15.375 6.889 15.375 15.375 0 8.485-6.889 15.374-15.375 15.374-8.485 0-15.374-6.889-15.374-15.374 0-8.486 6.889-15.375 15.374-15.375z" fill="#000000" opacity="1" data-original="#000000" class=""></path><path d="M80.466 64.177c4.368.718 7.844 1.699 9.919 2.882.455.259.833.523 1.118.801.206.201.383.373.383.59 0 .219-.181.393-.391.597-.456.442-1.136.849-1.992 1.244-4.733 2.183-14.276 3.631-25.259 3.631-10.982 0-20.525-1.448-25.258-3.631-.856-.395-1.536-.802-1.992-1.244-.211-.204-.391-.378-.391-.597 0-.212.17-.38.369-.576.276-.274.643-.533 1.084-.788 2.023-1.169 5.414-2.142 9.683-2.862a1.5 1.5 0 0 0-.499-2.958c-5.573.939-9.772 2.376-11.804 3.971-1.267.995-1.833 2.119-1.833 3.213 0 .782.28 1.562.887 2.302.648.789 1.737 1.57 3.239 2.263 4.971 2.293 14.981 3.907 26.515 3.907 11.535 0 21.544-1.614 26.516-3.907 1.502-.693 2.59-1.474 3.238-2.263.608-.74.888-1.52.888-2.302 0-1.104-.579-2.241-1.873-3.244-2.079-1.611-6.375-3.055-12.061-3.989a1.501 1.501 0 0 0-.486 2.96zM16.84.731C8.887.731 2.43 7.187 2.43 15.14s6.457 14.41 14.41 14.41 14.41-6.457 14.41-14.41S24.793.731 16.84.731zm0 3c6.297 0 11.41 5.112 11.41 11.409 0 6.298-5.113 11.41-11.41 11.41S5.43 21.438 5.43 15.14c0-6.297 5.113-11.409 11.41-11.409z" fill="#000000" opacity="1" data-original="#000000" class=""></path><path d="M14.282 7.544c-2.728-.16-5.316-.571-7.677-1.192a1.5 1.5 0 0 0-.763 2.901c2.543.669 5.328 1.114 8.265 1.286a1.5 1.5 0 0 0 .175-2.995zm12.327-1.073a39.091 39.091 0 0 1-5.978.983 1.5 1.5 0 0 0 .261 2.989 42.148 42.148 0 0 0 6.439-1.06 1.501 1.501 0 0 0-.722-2.912zM28.717 11.897c-3.476 1.11-7.539 1.743-11.877 1.743-2.221 0-4.369-.166-6.404-.477a1.501 1.501 0 0 0-.454 2.966c2.179.333 4.48.511 6.858.511 4.672 0 9.046-.69 12.789-1.885a1.5 1.5 0 0 0-.912-2.858zM16.84 20.002c-3.895 0-7.567-.511-10.793-1.419a1.5 1.5 0 0 0-.812 2.888c3.469.976 7.417 1.531 11.605 1.531a1.5 1.5 0 0 0 0-3zM81.408 15.69c-7.777 0-14.092 6.315-14.092 14.092 0 7.778 6.315 14.092 14.092 14.092 7.778 0 14.092-6.314 14.092-14.092 0-7.777-6.314-14.092-14.092-14.092zm0 3c6.122 0 11.092 4.971 11.092 11.092 0 6.122-4.97 11.092-11.092 11.092s-11.092-4.97-11.092-11.092c0-6.121 4.97-11.092 11.092-11.092zM29.767 50.526a6.838 6.838 0 0 0-6.835 6.835c0 3.773 3.062 6.836 6.835 6.836s6.836-3.063 6.836-6.836a6.839 6.839 0 0 0-6.836-6.835zm0 3c2.117 0 3.836 1.718 3.836 3.835s-1.719 3.836-3.836 3.836-3.835-1.719-3.835-3.836 1.718-3.835 3.835-3.835zM7.116 35.675v6.3a1.5 1.5 0 0 0 3 0v-6.3a1.5 1.5 0 0 0-3 0zM86.283 50.088v6.3a1.5 1.5 0 0 0 3 0v-6.3a1.5 1.5 0 0 0-3 0zM43.35 2.589V8.89a1.501 1.501 0 0 0 3 0V2.589a1.5 1.5 0 0 0-3 0z" fill="#000000" opacity="1" data-original="#000000" class=""></path><path d="M5.466 40.325h6.3a1.5 1.5 0 0 0 0-3h-6.3a1.5 1.5 0 0 0 0 3zM84.633 54.738h6.3a1.5 1.5 0 0 0 0-3h-6.3a1.5 1.5 0 0 0 0 3zM41.7 7.239H48a1.5 1.5 0 0 0 0-3h-6.3a1.501 1.501 0 0 0 0 3z" fill="#000000" opacity="1" data-original="#000000" class=""></path></g></svg>
