<svg xmlns="http://www.w3.org/2000/svg" version="1.1" xmlns:xlink="http://www.w3.org/1999/xlink" width="512" height="512" x="0" y="0" viewBox="0 0 512 512" style="enable-background:new 0 0 512 512" xml:space="preserve" class=""><g><path d="M256.004 83.237c38.814-20.445 82.509-29.027 126.255-22.232 4.93-25.07 2.169-46.557 1.969-48.026A14.996 14.996 0 0 0 369.299 0c-2.466.011-60.745.701-93.418 38.288-9.974 11.476-16.207 24.837-20.049 37.933-3.843-13.095-10.076-26.456-20.052-37.933C203.107.701 144.827.011 142.361 0a14.997 14.997 0 0 0-14.93 12.979c-.2 1.47-2.965 22.988 1.98 48.083 43.158-6.785 86.975 1.301 126.593 22.175z" fill="#000000" opacity="1" data-original="#000000" class=""></path><path d="M487.979 164.501c-45.67-76.362-147.09-100.739-231.978-46.596C171.628 64.069 69.987 87.681 24.03 164.496 4.054 197.885-1.504 233.123.387 271h511.225c1.89-37.843-3.652-73.091-23.633-106.499zm-205.563 56.253-15.829 15.829c-5.855 5.856-15.358 5.856-21.213 0l-15.815-15.816c-5.858-5.858-5.858-15.355 0-21.213 5.857-5.856 15.355-5.858 21.213 0l5.209 5.209 5.223-5.222c5.857-5.858 15.355-5.858 21.213 0 5.857 5.858 5.857 15.355-.001 21.213zM420.95 346c0 8.284-6.716 15-15 15s-15-6.716-15-15v-45H346v15c0 8.284-6.716 15-15 15s-15-6.716-15-15v-15h-45v45c0 8.284-6.716 15-15 15s-15-6.716-15-15v-45h-44.567v15c0 8.284-6.716 15-15 15s-15-6.716-15-15v-15h-44.9v45c0 8.284-6.716 15-15 15s-15-6.716-15-15v-45H3.428C22.332 422.903 116.85 512 256 512c138.625 0 233.589-88.593 252.572-211H420.95z" fill="#000000" opacity="1" data-original="#000000" class=""></path></g></svg>
