<svg xmlns="http://www.w3.org/2000/svg" version="1.1" xmlns:xlink="http://www.w3.org/1999/xlink" width="512" height="512" x="0" y="0" viewBox="0 0 512 512" style="enable-background:new 0 0 512 512" xml:space="preserve" class=""><g><path d="M63.1 248.3c0 3.3 2.7 6 6 6h6.7v6.7c0 3.3 2.7 6 6 6s6-2.7 6-6v-6.7h6.7c3.3 0 6-2.7 6-6s-2.7-6-6-6h-6.7v-6.7c0-3.3-2.7-6-6-6s-6 2.7-6 6v6.7h-6.7c-3.3 0-6 2.7-6 6zM429.6 63.4h6.7v6.7c0 3.3 2.7 6 6 6s6-2.7 6-6v-6.7h6.7c3.3 0 6-2.7 6-6s-2.7-6-6-6h-6.7v-6.7c0-3.3-2.7-6-6-6s-6 2.7-6 6v6.7h-6.7c-8 .2-7.9 11.7 0 12zM63.3 438.3h-6.7v-6.7c0-3.3-2.7-6-6-6s-6 2.7-6 6v6.7h-6.7c-3.3 0-6 2.7-6 6s2.7 6 6 6h6.7v6.7c0 3.3 2.7 6 6 6s6-2.7 6-6v-6.7h6.7c8-.3 8-11.7 0-12zM394.6 158.4c4.3 0 7.7-3.5 7.7-7.7-.4-10.3-15.1-10.3-15.5 0 .1 4.3 3.6 7.7 7.8 7.7zM231.9 126.5c5.8 0 10.6-4.7 10.6-10.6-.6-14-20.6-14-21.1 0 0 5.8 4.7 10.5 10.5 10.6zM444.5 361.9c-5.8 0-10.6 4.7-10.6 10.6.6 14 20.6 14 21.1 0 .1-5.9-4.7-10.6-10.5-10.6zM165.3 246.8c0 5.8 4.7 10.6 10.6 10.6 14-.6 14-20.6 0-21.1-5.9-.1-10.6 4.6-10.6 10.5zM402.3 439.4c-5.8 0-10.6 4.7-10.6 10.6.5 14 20.6 14 21.1 0 .1-5.8-4.7-10.6-10.5-10.6zM296.2 57.3c5.8 0 10.6-4.7 10.6-10.6-.6-14-20.6-14-21.1 0-.1 5.9 4.6 10.6 10.5 10.6zM487.6 150.8c-18.1-17.5-73.3 25.6-98.6 44.5l-15.3 13c-2.5 2.1-2.8 5.9-.7 8.5 2.1 2.5 5.9 2.8 8.5.7l15.2-12.9c58.7-45.5 79.7-48 82.4-45.3 1.4 1.4 2 10.4-12 34.5-44.7 73.4-128.8 158.5-197 217.6-29.9 25.4-93.6 76.7-114.8 71.7-1.2-1.2-2-8.4 8.1-27.4 9.1-18.3 32.7-49.6 52.1-74.4 4.6-6.5-4.5-13.4-9.5-7.3-18.9 24.8-96 117.5-47.8 121.7 9 0 21.6-4.9 38.5-14.8 21.5-12.6 48.7-32.8 78.9-58.4C367 461.9 459.3 369.2 419.9 278c24.7-30.3 88.1-105.4 67.7-127.2zm-127 259.6c-23.7 11-50.5 12.1-74.7 3.2 42.2-36.8 88.6-83.2 125.3-125.5 1.5 4 2.7 8.1 3.6 12.2-1.6 25.6-38.8 69.3-62.1 80.3-5.7 2.8-3.6 11.4 2.7 11.4 19.7-6.3 48.6-38 61.3-61.1-3.3 33.5-23.6 64.4-56.1 79.5z" fill="#000000" opacity="1" data-original="#000000" class=""></path><path d="M393.6 239.8c-47-47.6-127.9-41.2-166.6 13.7-33.7 45.4-24.9 113.2 19.3 148.6-19.4 14.4-28.3 18-31.9 18.9.7-3 3.4-9.6 12.5-23 1.9-2.7 1.2-6.5-1.6-8.3s-6.5-1.2-8.3 1.6c-14.6 21.3-18.2 33.1-12 39.2 1.6 1.6 3.8 2.9 7.3 2.9 7.3 0 20.2-5.6 45.7-25 45.6-34.4 115-104 148.8-149.5 26.7-35.6 25.2-45.5 20.2-50.5-6-6-17-2.8-37 10.6-6.5 4.7 0 14.1 6.7 10 12-8 18.1-10.4 20.9-11.1-.9 3.4-4.2 11.7-17.2 29.5-2.2-2.8-4.5-5.3-6.8-7.6zm-66.5 90.7c-24.8 24.9-49.8 47.4-71 64-10.4-8-18.8-17.9-25.1-29.1 10.4-4 22.1-10.6 34.8-19.7 2.7-1.9 3.3-5.7 1.4-8.4s-5.7-3.3-8.4-1.4c-12.2 8.7-23.5 15.1-33.1 18.6-5.2-12.6-7.8-26.9-7.3-40.5 29.9-9 76.1-55.4 79.1-79.6.6-3.2-1.5-6.4-4.7-7.1-3.2-.6-6.4 1.5-7.1 4.7-3.8 22.4-43.7 59.5-66 68.6 9.9-61.7 78.5-97.9 134.4-73.3-9.6 22.1-32.6 52.3-60.3 79-2.4 2.3-2.5 6.1-.2 8.5s6.1 2.5 8.5.2c28.9-27.8 52.3-58.6 62.7-82.3 10.7 6.2 20.3 14.5 28 24.3-16.9 21.9-40 47.7-65.7 73.5zM91.8 346.6c-8.8 0-16 7.2-16 16 .9 21.2 31.1 21.2 32 0 0-8.9-7.2-16-16-16zm0 20c-5.3-.2-5.3-7.8 0-8 5.3.1 5.3 7.8 0 8zM95.3 43c8.8 0 16-7.2 16-16-.9-21.2-31.1-21.2-32 0 0 8.8 7.1 16 16 16zm0-20c5.3.2 5.3 7.8 0 8-5.3-.2-5.3-7.8 0-8zM327.5 154.9c12.4 0 22.5-10.1 22.5-22.5-1.2-29.8-43.8-29.8-45 0 0 12.4 10.1 22.5 22.5 22.5zm0-33c5.8 0 10.5 4.7 10.5 10.5-.6 13.9-20.4 13.9-21 0 0-5.8 4.7-10.5 10.5-10.5zM209.1 184.9c7.8 0 13.1-2.1 16-6.4 6.8-10.7-3.1-25.5-27.9-45.9 5.3-52.6-54.7-86.9-97.4-55.8C70 65.7 52 65.1 46.2 75.2s3.8 25.3 28.6 45.4c-4.9 52.5 54.3 86.6 97.3 55.6 15.6 5.8 27.9 8.7 37 8.7zm6-13.2c-.9 1.1-9.7 3.2-33-4.7 5.5-6.2 9.6-13.4 12.2-21.2 18.3 15.9 21.2 24.4 20.8 25.9zm-74.3-94.5c27.2 2.1 48.4 28.9 44.2 55.8-.2.7-.3 1.4-.3 2.1-1.9 10.5-7 20-14.8 27.3-29.2-12-57-27.8-82.2-47 2.3-10.6 8.4-20.4 16.8-27.3 10.3-8.3 23.3-12.2 36.3-10.9zm-84.2 4c1-1.1 9.8-3.1 33.1 4.8-5.4 6.1-9.7 13.6-12.2 21.3-18.6-16.2-21.3-24.8-20.9-26.1zm74.5 94.5c-23.6-1.8-43.4-22.7-44.5-46.1 22.4 16.3 46.3 29.9 71.7 41-8.3 4.2-17.7 6-27.2 5.1z" fill="#000000" opacity="1" data-original="#000000" class=""></path></g></svg>
