<svg xmlns="http://www.w3.org/2000/svg" version="1.1" xmlns:xlink="http://www.w3.org/1999/xlink" width="512" height="512" x="0" y="0" viewBox="0 0 75 75" style="enable-background:new 0 0 512 512" xml:space="preserve" class=""><g><path d="M51.7 18.5c.5.3 1.1.1 1.4-.4l.6-1 1 .6c.5.3 1.1.1 1.4-.4s.1-1.1-.4-1.4l-1-.6.6-1c.3-.5.1-1.1-.4-1.4s-1.1-.1-1.4.4l-.6 1-1-.6c-.5-.3-1.1-.1-1.4.4s-.1 1.1.4 1.4l1 .6-.6 1c-.2.5 0 1.1.4 1.4zM40.4 31.4c.5.3 1.1.1 1.4-.4l.6-1 1 .6c.5.3 1.1.1 1.4-.4s.1-1.1-.4-1.4l-1-.6.6-1c.3-.5.1-1.1-.4-1.4s-1.1-.1-1.4.4l-.6 1-1-.6c-.5-.3-1.1-.1-1.4.4s-.1 1.1.4 1.4l1 .6-.6 1c-.3.5-.1 1.1.4 1.4zM8.4 23.9l1 .6-.6 1c-.3.5-.1 1.1.4 1.4.2.1.4.1.6.1.4 0 .7-.2.9-.5l.6-1 1 .6c.2.1.3.1.5.1.4 0 .7-.2.9-.5.3-.5.1-1.1-.4-1.4l-1-.6.6-1c.3-.5.1-1.1-.4-1.4s-1.1-.1-1.4.4l-.6 1-1-.6c-.5-.3-1.1-.1-1.4.4-.4.6-.2 1.2.3 1.4zM21.7 25.9c.2.1.3.1.5.1.4 0 .7-.2.9-.5l.6-1 1 .6c.2.1.3.1.5.1.4 0 .7-.2.9-.5.3-.5.1-1.1-.4-1.4l-1-.6.6-1c.3-.5.1-1.1-.4-1.4s-1.1-.1-1.4.4l-.6 1-1-.6c-.5-.3-1.1-.1-1.4.4s-.1 1.1.4 1.4l1 .6-.6 1c-.2.5-.1 1.1.4 1.4zM16.4 42.7c.5.3 1.1.1 1.4-.4l.6-1 1 .6c.5.3 1.1.1 1.4-.4s.1-1.1-.4-1.4l-1-.6.6-1c.3-.5.1-1.1-.4-1.4s-1.1-.1-1.4.4l-.6 1-1-.6c-.5-.3-1.1-.1-1.4.4s-.1 1.1.4 1.4l1 .6-.6 1c-.3.6-.1 1.2.4 1.4zM12.3 57.7c-.5-.3-1.1-.1-1.4.4l-.6 1-1-.6c-.5-.3-1.1-.1-1.4.4s-.1 1.1.4 1.4l1 .6-.6 1c-.3.5-.1 1.1.4 1.4s1.1.1 1.4-.4l.6-1 1 .6c.5.3 1.1.1 1.4-.4s.1-1.1-.4-1.4l-1-.6.6-1c.3-.6.1-1.2-.4-1.4zM36.8 56.6c-.5-.3-1.1-.1-1.4.4l-.6 1-1-.6c-.5-.3-1.1-.1-1.4.4s-.1 1.1.4 1.4l1 .6-.6 1c-.3.5-.1 1.1.4 1.4s1.1.1 1.4-.4l.6-1 1 .6c.5.3 1.1.1 1.4-.4s.1-1.1-.4-1.4l-1-.6.6-1c.3-.5.1-1.1-.4-1.4zM51 46.1c-.5-.3-1.1-.1-1.4.4l-.6 1-1-.5c-.5-.3-1.1-.1-1.4.4s-.1 1.1.4 1.4l1 .6-.6 1c-.3.5-.1 1.1.4 1.4s1.1.1 1.4-.4l.6-1 1 .6c.5.3 1.1.1 1.4-.4s.1-1.1-.4-1.4l-1-.6.6-1c.2-.6 0-1.2-.4-1.5zM62.3 54.7c-.5-.3-1.1-.1-1.4.4l-.6 1-1-.6c-.5-.3-1.1-.1-1.4.4s-.1 1.1.4 1.4l1 .6-.6 1c-.3.5-.1 1.1.4 1.4s1.1.1 1.4-.4l.6-1 1 .6c.5.3 1.1.1 1.4-.4s.1-1.1-.4-1.4l-1-.6.6-1c.2-.6 0-1.2-.4-1.4z" fill="#000000" opacity="1" data-original="#000000" class=""></path><path d="M67.2 19.5h-.4l-3.7-9c.8-.7 1.4-1.7 1.4-2.9 0-2-1.7-3.7-3.7-3.7s-3.7 1.7-3.7 3.7c0 2.1 1.8 3.9 4.1 3.6l3.7 9c-.8.7-1.4 1.7-1.4 2.9 0 .6.2 1.2.5 1.8l-8.4 8.2c-.5-.3-1.2-.5-1.8-.5-1.9 0-3.4 1.4-3.6 3.3L43.6 37c-.6-1.3-1.9-2.1-3.3-2.1-.8 0-1.6.3-2.2.7l-5-3.9c.2-.4.3-.9.3-1.4 0-1.6-1.1-3-2.6-3.5l.3-11.1c1.2-.3 2.2-1.3 2.6-2.5.2.2 1 .6 1.3.8l-.6 1c-.3.5-.1 1.1.4 1.4s1.1.1 1.4-.4l.6-1 1 .6c.5.3 1.1.1 1.4-.4s.1-1.1-.4-1.4l-1-.6.6-1c.3-.5.1-1.1-.4-1.4s-1.1-.1-1.4.4l-.6 1-1-.6c-.4-.2-.8-.1-1.1.1-.2-1.8-1.8-3.3-3.6-3.3-2 0-3.7 1.7-3.7 3.7 0 1.6 1.1 3 2.6 3.5l-.3 11.1c-1.7.3-2.9 1.8-2.9 3.5 0 2 1.7 3.7 3.7 3.7.8 0 1.5-.3 2.2-.7l5 3.9c-.2.4-.3.9-.3 1.4 0 .6.2 1.1.4 1.6l-10.8 9.8c-.6-.4-1.2-.6-2-.6-1 0-2 .4-2.6 1.1l-10.2-5.6c.1-.3.1-.5.1-.8 0-2-1.7-3.7-3.7-3.7S4.1 42 4.1 44s1.7 3.7 3.7 3.7c1 0 2-.4 2.6-1.1l10.2 5.6c-.1.3-.1.5-.1.8 0 1.5.9 2.8 2.2 3.3l-1.1 7.3c-1.8.2-3.2 1.8-3.2 3.6 0 2 1.7 3.7 3.7 3.7s3.7-1.7 3.7-3.7c0-1.5-.9-2.8-2.2-3.3l1.1-7.3c1.8-.2 3.2-1.8 3.2-3.6 0-.6-.2-1.1-.4-1.6l10.8-9.8c.6.4 1.2.6 2 .6 1.9 0 3.4-1.4 3.6-3.3l6.5-1.1c.6 1.3 1.9 2.1 3.3 2.1 2 0 3.7-1.7 3.7-3.7 0-.6-.2-1.2-.5-1.7l8.4-8.2c.5.3 1.2.5 1.8.5 2 0 3.7-1.7 3.7-3.7s-1.6-3.6-3.6-3.6zM59 7.7c0-.9.8-1.7 1.7-1.7s1.7.8 1.7 1.7c0 1-.8 1.7-1.7 1.7S59 8.6 59 7.7zm-51.2 38c-.9 0-1.7-.8-1.7-1.7s.8-1.7 1.7-1.7 1.7.8 1.7 1.7c0 1-.8 1.7-1.7 1.7zm20.7-33.6c0-.9.8-1.7 1.7-1.7s1.7.8 1.7 1.7-.8 1.7-1.7 1.7c-.9-.1-1.7-.8-1.7-1.7zM28 30.2c0-.9.8-1.7 1.7-1.7s1.7.8 1.7 1.7-.8 1.7-1.7 1.7c-1 0-1.7-.8-1.7-1.7zM22 69c-.9 0-1.7-.8-1.7-1.7s.8-1.7 1.7-1.7 1.7.8 1.7 1.7S22.9 69 22 69zm2.2-14.3c-.9 0-1.7-.8-1.7-1.7s.8-1.7 1.7-1.7c1 0 1.7.8 1.7 1.7 0 1-.8 1.7-1.7 1.7zm16-14.5c-.9 0-1.7-.8-1.7-1.7s.8-1.7 1.7-1.7 1.7.8 1.7 1.7-.7 1.7-1.7 1.7zM53.7 38c-.9 0-1.7-.8-1.7-1.7s.8-1.7 1.7-1.7 1.7.8 1.7 1.7c0 1-.7 1.7-1.7 1.7zm13.5-13.1c-.9 0-1.7-.8-1.7-1.7s.8-1.7 1.7-1.7 1.7.8 1.7 1.7-.8 1.7-1.7 1.7z" fill="#000000" opacity="1" data-original="#000000" class=""></path></g></svg>
