<svg xmlns="http://www.w3.org/2000/svg" version="1.1" xmlns:xlink="http://www.w3.org/1999/xlink" width="512" height="512" x="0" y="0" viewBox="0 0 20 20" style="enable-background:new 0 0 512 512" xml:space="preserve" class=""><g><path d="M16.5 2c-1 0-1.9.4-2.5 1.1-.6-.7-1.5-1.1-2.5-1.1S9.6 2.4 9 3.1C8.4 2.4 7.5 2 6.5 2S4.7 2.4 4 3.1C3.1 2.1 2.1 2 1 2c-.6 0-1 .5-1 1s.4 1 1 1h.5C2.3 4 3 4.7 3 5.5V13c0 .6.4 1 1 1s1-.4 1-1V5.5C5 4.7 5.7 4 6.5 4S8 4.7 8 5.5V13c0 .6.4 1 1 1s1-.4 1-1V5.5c0-.8.7-1.5 1.5-1.5s1.5.7 1.5 1.5V14h-1c-.6 0-1 .4-1 1s.4 1 1 1h1v1c0 .6.4 1 1 1s1-.4 1-1v-1c2.8 0 5-2.2 5-5V5.5C20 3.6 18.4 2 16.5 2zm1.5 9c0 1.7-1.3 3-3 3V5.5c0-.8.7-1.5 1.5-1.5s1.5.7 1.5 1.5z" fill="#000000" opacity="1" data-original="#000000"></path></g></svg>